<svg id="Слой_1" data-name="Слой 1" xmlns="http://www.w3.org/2000/svg" viewBox="0 0 262.19 45.06"><title>logo-fastsite</title><rect y="0.46" width="45" height="45" fill="#ca3034"/><path d="M40.46,31l1.69-9.09-5.28.29A14.35,14.35,0,0,0,36.32,19l5.09-1.46-4.58-8L33,13.15a14.46,14.46,0,0,0-2.46-2.09l3-4.41L24.78,3.47l-.6,5.26a14.45,14.45,0,0,0-3.23,0l-.59-5.25L11.68,6.63,14.59,11a14.46,14.46,0,0,0-2.49,2.08L8.3,9.48l-4.59,8,5,1.44a14.35,14.35,0,0,0-.56,3.21L3,21.87,4.64,31l4.71-2.1A14.38,14.38,0,0,0,11,31.67l-4.11,3.1L14,40.64,16.27,36a14.24,14.24,0,0,0,2.88,1l-1.22,5h9.24L26,37a14.26,14.26,0,0,0,2.85-1l2.25,4.69,7.15-5.85L34,31.63a14.38,14.38,0,0,0,1.64-2.79Zm-5.41-4.2L31.2,25.61a9.09,9.09,0,0,1-2.51,4l2.75,2.94L29.58,34,27.4,30.62A9,9,0,0,1,23.26,32l.35,4H21.25l.37-4a9,9,0,0,1-4.41-1.64l-2.35,3.33-1.8-1.52L16,29.3a9.07,9.07,0,0,1-2.3-4.09l-4,1-.39-2.32,4.1-.3c0-.21,0-.43,0-.64a9.05,9.05,0,0,1,.9-4l-3.7-1.78,1.2-2,3.33,2.42a9.12,9.12,0,0,1,3.63-3l-1.67-3.75,2.23-.77,1,4a9.09,9.09,0,0,1,4.69.09l1.14-3.92,2.19.85-1.82,3.65a9.13,9.13,0,0,1,3.54,3.1l3.38-2.24,1.12,2.07-3.72,1.6A9.06,9.06,0,0,1,31.59,23a9.18,9.18,0,0,1-.06,1l4,.47Z" fill="#fff"/><path d="M79.6,6.75a1.16,1.16,0,0,1-1.16,1.16H66.59Q64,7.91,63,9a5.92,5.92,0,0,0-1,3.88v6.27H77.73a1.16,1.16,0,0,1,1.16,1.16V24.5a1.16,1.16,0,0,1-1.16,1.16H62V43.44a1.16,1.16,0,0,1-1.16,1.16H55.16A1.16,1.16,0,0,1,54,43.44V12.91q0-6,3-9T67.41,1a74.75,74.75,0,0,1,7.84.4q3.76.4,4.05.71a1.31,1.31,0,0,1,.3.94Z" fill="#ca3034"/><path d="M107.56,43.44a1.16,1.16,0,0,1-1.16,1.16h-4.93a1.16,1.16,0,0,1-1.16-1.16v-.94a15.74,15.74,0,0,1-8.19,2.55q-4.85,0-7.44-2.44t-2.59-7.26v-.23q0-5.08,3.37-7.56t10.8-2.48h3.66V22.55q0-2.72-1.21-3.71a6.13,6.13,0,0,0-3.9-1q-2.64,0-5,.14l-4.42.31H85q-1,0-1-1V13.59a1.16,1.16,0,0,1,.44-1,12.38,12.38,0,0,1,3.77-.76,53.71,53.71,0,0,1,6.59-.41q12.76,0,12.76,11.09Zm-7.66-6.1V30.2H96.25a9.38,9.38,0,0,0-4.92,1q-1.55,1-1.55,3.94v.23a3.63,3.63,0,0,0,.89,2.79A5,5,0,0,0,94,39,12.45,12.45,0,0,0,99.91,37.35Z" fill="#ca3034"/><path d="M133.85,18.41a69.31,69.31,0,0,0-9.58-.68,6.38,6.38,0,0,0-3.09.55,2,2,0,0,0-.94,1.89,1.94,1.94,0,0,0,1.13,1.64l8.82,5.39a13.68,13.68,0,0,1,4.14,3.63A8.74,8.74,0,0,1,135.75,36a8.07,8.07,0,0,1-3,6.56q-3,2.48-8.35,2.48a51,51,0,0,1-6.92-.48q-3.52-.48-4.05-.91a1.34,1.34,0,0,1-.54-1.11V39.08a.85.85,0,0,1,.3-.62,1,1,0,0,1,.69-.28h.23a80.89,80.89,0,0,0,9.75.62,6.85,6.85,0,0,0,3.08-.55A2.27,2.27,0,0,0,128,36q0-1.36-1.81-2.5l-8.71-5.36a10.64,10.64,0,0,1-3.57-3.5,8.41,8.41,0,0,1-1.3-4.49q0-8.7,11-8.71a43.67,43.67,0,0,1,7.27.55,13.83,13.83,0,0,1,3.69.89,1.25,1.25,0,0,1,.44,1V17.3q0,1.11-.94,1.11Z" fill="#ca3034"/><path d="M160.42,43.61a1,1,0,0,1-.27.72,4.29,4.29,0,0,1-2,.51,23.69,23.69,0,0,1-2.78.21q-5.87,0-7.56-2.11t-1.69-7.1V17.61q-5.47-.82-5.73-.88a1.27,1.27,0,0,1-.57-.36,1,1,0,0,1-.31-.75V13a1.16,1.16,0,0,1,1.16-1.16h5.44V7.09a1,1,0,0,1,.34-.78,5.23,5.23,0,0,1,2-.58L152.71,5h.23q.94,0,.94.88v6h5.22A1.16,1.16,0,0,1,160.25,13v3.43a1.16,1.16,0,0,1-1.16,1.16h-5.22V35.84a8.85,8.85,0,0,0,.24,2.58q.24.65,2,.65h3.06q1.22,0,1.22.88Z" fill="#ca3034"/><path d="M190.08,8.48q-6.38-.57-11.43-.57-6.1,0-6.1,4.11a3.56,3.56,0,0,0,1.18,2.75,14.7,14.7,0,0,0,2.74,2l7.83,4.37a17.93,17.93,0,0,1,6.11,5,11.44,11.44,0,0,1,1.94,6.79,11.83,11.83,0,0,1-1.74,6.39,11,11,0,0,1-5.16,4.27,21.06,21.06,0,0,1-8.35,1.47,51.36,51.36,0,0,1-7.34-.48q-3.32-.48-3.69-.88a1.2,1.2,0,0,1-.37-.82v-4.2a1.11,1.11,0,0,1,1.11-1.11h.11q1.64.2,5.1.4t5.19.2a8.68,8.68,0,0,0,5.1-1.19q1.62-1.19,1.62-4.05a4,4,0,0,0-1.16-3,14.71,14.71,0,0,0-2.67-2l-8.76-5.25a15.84,15.84,0,0,1-5.2-4.57A10.64,10.64,0,0,1,164.47,12q0-11,14.52-11a65.17,65.17,0,0,1,7.08.44,19.34,19.34,0,0,1,4.55.78,1,1,0,0,1,.57.94V7.43q0,1-1,1Z" fill="#ca3034"/><path d="M205.45,6.33a1.16,1.16,0,0,1-1.16,1.16h-5.64a1.21,1.21,0,0,1-.85-.34,1.08,1.08,0,0,1-.37-.82V1.22a1.08,1.08,0,0,1,.37-.82,1.21,1.21,0,0,1,.85-.34h5.64a1.12,1.12,0,0,1,.82.34,1.12,1.12,0,0,1,.34.82Zm-.17,37.06a1.19,1.19,0,0,1-.35.85,1.1,1.1,0,0,1-.81.37h-5.36a1.09,1.09,0,0,1-.81-.37,1.19,1.19,0,0,1-.36-.85V13a1.16,1.16,0,0,1,1.16-1.16h5.36a1.14,1.14,0,0,1,.81.34,1.1,1.1,0,0,1,.35.82Z" fill="#ca3034"/><path d="M231.28,43.61a1,1,0,0,1-.27.72,4.29,4.29,0,0,1-2,.51,23.69,23.69,0,0,1-2.78.21q-5.87,0-7.56-2.11T217,35.84V17.61q-5.47-.82-5.73-.88a1.27,1.27,0,0,1-.57-.36,1,1,0,0,1-.31-.75V13a1.16,1.16,0,0,1,1.16-1.16H217V7.09a1,1,0,0,1,.34-.78,5.23,5.23,0,0,1,2-.58L223.57,5h.23q.94,0,.94.88v6h5.22A1.16,1.16,0,0,1,231.11,13v3.43a1.16,1.16,0,0,1-1.16,1.16h-5.22V35.84a8.85,8.85,0,0,0,.24,2.58q.24.65,2,.65h3.06q1.22,0,1.22.88Z" fill="#ca3034"/><path d="M262.19,29.44q0,1.48-1.16,1.47H242.11v.17a8.54,8.54,0,0,0,1.59,5.22q1.59,2.16,5.36,2.16,2.81,0,5.59-.2l5.1-.4h.17q1,0,1,.88v3.83c0,.76-.19,1.2-.57,1.35a29.65,29.65,0,0,1-3.67.68,57.86,57.86,0,0,1-8.24.47,14.16,14.16,0,0,1-10.05-3.74q-4-3.74-4-10.83V26.2q0-6.89,3.7-10.82t10.25-3.93q6.44,0,10.12,4t3.69,10.75Zm-7.71-4v-.23A7.68,7.68,0,0,0,252.8,20a5.59,5.59,0,0,0-4.42-1.91A5.73,5.73,0,0,0,243.87,20a7.59,7.59,0,0,0-1.7,5.23v.23Z" fill="#ca3034"/></svg>